<svg viewBox="0 0 24 24" xmlns="http://www.w3.org/2000/svg" xmlns:xlink="http://www.w3.org/1999/xlink" width="24" height="24" fill="none">
	<rect id="backspace" width="24" height="24" x="0" y="0" fill="rgb(255,255,255)" fill-opacity="0" />
	<path id="矢量 10" d="M22 3L7 3C6.31 3 5.77 3.35 5.41 3.88L0 12L5.41 20.11C5.77 20.64 6.31 21 7 21L22 21C23.1 21 24 20.1 24 19L24 5C24 3.9 23.1 3 22 3ZM19 15.59L17.59 17L14 13.41L10.41 17L9 15.59L12.59 12L9 8.41L10.41 7L14 10.59L17.59 7L19 8.41L15.41 12L19 15.59Z" fill="rgb(109,114,120)" fill-rule="evenodd" />
</svg>
