<svg viewBox="0 0 128 128" xmlns="http://www.w3.org/2000/svg" xmlns:xlink="http://www.w3.org/1999/xlink" width="128" height="128" fill="none">
	<rect id="bookmark-3-fill" width="128" height="128" x="0" y="0" fill="rgb(255,255,255)" fill-opacity="0" />
	<path id="矢量 16" d="M21.3333 10.6667L106.667 10.6667C108.081 10.6667 109.438 11.2286 110.438 12.2287C111.438 13.2289 112 14.5855 112 16L112 118.805C112.001 119.25 111.89 119.689 111.677 120.079C111.465 120.47 111.158 120.803 110.785 121.045C110.412 121.287 109.984 121.432 109.54 121.467C109.097 121.501 108.652 121.424 108.245 121.243L64 101.493L19.7547 121.237C19.3488 121.419 18.9041 121.496 18.4609 121.461C18.0177 121.427 17.59 121.283 17.217 121.041C16.8438 120.799 16.5371 120.468 16.3245 120.078C16.112 119.687 16.0004 119.25 16 118.805L16 16C16 14.5855 16.5619 13.2289 17.5621 12.2287C18.5623 11.2286 19.9188 10.6667 21.3333 10.6667L21.3333 10.6667ZM64 72L79.6747 80.24L76.6827 62.7893L89.36 50.4267L71.8347 47.8773L64 32L56.16 47.8773L38.64 50.4267L51.3173 62.7893L48.3307 80.24L64 72Z" fill="rgb(255,107,1)" fill-rule="evenodd" />
</svg>
