<svg viewBox="0 0 16 16" xmlns="http://www.w3.org/2000/svg" xmlns:xlink="http://www.w3.org/1999/xlink" width="16" height="16" fill="none">
	<rect id="caret-right" width="16" height="16" x="0" y="0" fill="rgb(255,255,255)" fill-opacity="0" />
	<path id="Vector" d="M5.69853 12.3605L10.059 8L5.69853 3.63954C5.66598 3.607 5.63751 3.57192 5.6131 3.53496C5.45923 3.30192 5.46703 2.99354 5.63649 2.76814C5.6552 2.74325 5.67588 2.71938 5.69853 2.69673C5.76813 2.62713 5.84929 2.57614 5.93583 2.54375C6.05161 2.50042 6.17702 2.49039 6.29726 2.51367C6.42332 2.53808 6.5437 2.5991 6.64134 2.69673L11.4732 7.5286C11.5983 7.65367 11.6685 7.8232 11.6685 8C11.6685 8.17687 11.5983 8.3464 11.4732 8.47147L6.64134 13.3033C6.38098 13.5637 5.95888 13.5637 5.69853 13.3033C5.66598 13.2708 5.63751 13.2357 5.6131 13.1987C5.44224 12.94 5.47072 12.5883 5.69853 12.3605Z" fill="rgb(26,28,36)" fill-rule="evenodd" />
</svg>
