<svg viewBox="0 0 100 100" xmlns="http://www.w3.org/2000/svg" xmlns:xlink="http://www.w3.org/1999/xlink" width="100" height="100" fill="none">
	<rect id="source" width="100" height="100" x="0" y="0" fill="rgb(255,255,255)" fill-opacity="0" />
	<path id="矢量 293" d="M83.3333 25L50 25L41.6667 16.6667L16.6667 16.6667C12.0833 16.6667 8.37501 20.4167 8.37501 25L8.33334 75C8.33334 79.5833 12.0833 83.3333 16.6667 83.3333L83.3333 83.3333C87.9167 83.3333 91.6667 79.5833 91.6667 75L91.6667 33.3333C91.6667 28.75 87.9167 25 83.3333 25ZM58.3333 66.6667L25 66.6667L25 58.3333L58.3333 58.3333L58.3333 66.6667ZM75 50L25 50L25 41.6667L75 41.6667L75 50Z" fill="rgb(196,196,196)" fill-rule="evenodd" />
</svg>
