<svg viewBox="0 0 24 24" xmlns="http://www.w3.org/2000/svg" xmlns:xlink="http://www.w3.org/1999/xlink" width="24" height="24" fill="none">
	<rect id="User Interface/user" width="24" height="24" x="0" y="0" />
	<g id="user">
		<path id="Ellipse 328 (Stroke)" d="M12 2.75C9.37665 2.75 7.25 4.87665 7.25 7.5C7.25 10.1234 9.37665 12.25 12 12.25C14.6234 12.25 16.75 10.1234 16.75 7.5C16.75 4.87665 14.6234 2.75 12 2.75ZM5.75 7.5C5.75 4.04822 8.54822 1.25 12 1.25C15.4518 1.25 18.25 4.04822 18.25 7.5C18.25 10.9518 15.4518 13.75 12 13.75C8.54822 13.75 5.75 10.9518 5.75 7.5Z" fill="rgb(26,28,36)" fill-rule="evenodd" />
		<path id="Ellipse 328 (Stroke)" d="M12 13.75C7.53459 13.75 3.87987 16.5572 2.97063 20.2009C2.85325 20.6713 3.2423 21.25 4 21.25L12 21.25C12.4142 21.25 12.75 21.5858 12.75 22C12.75 22.4142 12.4142 22.75 12 22.75L4 22.75C2.54856 22.75 1.09778 21.5108 1.51526 19.8378C2.61114 15.4461 6.93195 12.25 12 12.25C17.0681 12.25 21.3889 15.4461 22.4847 19.8378C22.9022 21.5108 21.4514 22.75 20 22.75L17 22.75C16.5858 22.75 16.25 22.4142 16.25 22C16.25 21.5858 16.5858 21.25 17 21.25L20 21.25C20.7577 21.25 21.1468 20.6713 21.0294 20.2009C20.1201 16.5572 16.4654 13.75 12 13.75Z" fill="rgb(26,28,36)" fill-rule="evenodd" />
	</g>
</svg>
